<?xml version="1.0" standalone="no"?>
<!DOCTYPE svg PUBLIC "-//W3C//DTD SVG 20010904//EN"
 "http://www.w3.org/TR/2001/REC-SVG-20010904/DTD/svg10.dtd">
<svg version="1.0" xmlns="http://www.w3.org/2000/svg"
 width="512.000000pt" height="512.000000pt" viewBox="0 0 512.000000 512.000000"
 preserveAspectRatio="xMidYMid meet">

<g transform="translate(0.000000,512.000000) scale(0.100000,-0.100000)"
fill="#000000" stroke="none">
<path d="M4285 4703 c-184 -95 -515 -299 -696 -429 -332 -238 -537 -452 -649
-674 -49 -97 -109 -256 -112 -294 -1 -12 18 -49 41 -83 53 -80 140 -254 181
-365 36 -98 27 -96 137 -35 341 190 595 565 683 1009 9 48 16 59 35 64 33 8
62 -3 68 -26 14 -52 -71 -334 -148 -495 -124 -259 -344 -504 -563 -627 -29
-17 -50 -34 -45 -38 4 -4 44 -19 88 -35 44 -15 140 -54 213 -86 149 -65 139
-65 242 -1 127 80 244 207 345 377 129 215 197 493 226 920 12 178 6 757 -8
807 -8 26 -9 26 -38 11z"/>
<path d="M2605 4480 c-159 -269 -271 -537 -287 -692 l-5 -47 76 -45 c97 -57
222 -157 295 -237 31 -33 58 -60 60 -58 1 2 13 33 26 69 50 142 147 315 239
425 32 39 40 56 36 75 -13 59 -145 303 -246 455 -60 91 -114 165 -119 165 -5
0 -39 -49 -75 -110z"/>
<path d="M1640 3754 c-237 -46 -436 -147 -610 -311 -673 -633 -692 -1896 -40
-2553 112 -113 202 -179 335 -245 162 -81 273 -108 455 -109 190 -1 313 26
463 101 l68 34 -82 92 c-183 206 -310 456 -360 712 -22 110 -19 429 5 530 40
171 120 359 206 485 78 112 246 245 359 282 90 29 298 36 431 14 52 -8 96 -14
98 -12 6 7 -48 138 -98 237 -79 159 -161 271 -295 404 -130 129 -231 200 -372
260 -139 60 -221 77 -388 80 -82 2 -161 1 -175 -1z m-412 -756 c21 -21 13 -54
-24 -109 -53 -77 -129 -241 -154 -329 -96 -345 -50 -669 147 -1021 57 -103 55
-139 -9 -139 -32 0 -51 26 -127 177 -59 118 -112 266 -137 388 -26 125 -26
394 0 515 35 164 104 327 193 463 37 55 49 67 72 67 15 0 32 -5 39 -12z"/>
<path d="M2565 2694 c-11 -2 -43 -9 -71 -15 -28 -5 -73 -23 -98 -40 -274 -173
171 -719 876 -1073 334 -168 639 -260 904 -273 194 -9 320 22 388 98 41 45 52
93 37 155 -101 402 -950 978 -1648 1120 -120 24 -338 40 -388 28z m476 -250
c370 -70 939 -390 1109 -623 72 -99 86 -160 50 -219 -75 -123 -368 -88 -761
93 -410 187 -738 465 -739 623 0 36 20 81 44 101 50 42 160 51 297 25z"/>
<path d="M2841 2352 c-43 -13 -47 -35 -16 -88 106 -181 522 -447 889 -569 192
-64 354 -82 392 -43 14 14 13 20 -6 59 -83 161 -471 425 -813 553 -188 70
-379 108 -446 88z"/>
<path d="M2170 2439 c-17 -24 -58 -98 -91 -164 -242 -491 -134 -1080 271
-1485 202 -203 431 -327 721 -392 136 -30 397 -32 529 -5 407 85 734 328 910
677 31 61 74 180 67 186 -2 2 -24 -5 -49 -16 -95 -42 -172 -52 -343 -47 -273
9 -553 86 -886 244 -565 269 -998 659 -1078 973 l-18 73 -33 -44z m707 -1759
c230 -99 486 -124 727 -70 94 21 119 17 131 -20 13 -40 -10 -57 -107 -81 -131
-31 -341 -37 -480 -14 -116 19 -232 53 -328 96 -99 46 -119 71 -83 111 23 25
36 23 140 -22z"/>
</g>
</svg>
